<svg xmlns="http://www.w3.org/2000/svg" fill="none" viewBox="0 0 20 20"><circle cx="2" cy="2" r="2" fill="currentColor" transform="matrix(-1 0 0 1 6 8)"/><path fill="currentColor" d="M8.354 5.184c.467-.354 1.131-.324 1.498.134a7.46 7.46 0 0 1 1.648 4.686 7.46 7.46 0 0 1-1.647 4.686c-.368.458-1.032.488-1.5.133-.62-.47-.622-1.403-.19-2.05A4.97 4.97 0 0 0 9 10.003a4.97 4.97 0 0 0-.837-2.77c-.432-.647-.429-1.58.19-2.05m3.935-2.987c.506-.383 1.226-.324 1.614.179A12.44 12.44 0 0 1 16.5 10c0 2.87-.97 5.515-2.597 7.625-.389.503-1.11.562-1.616.178-.59-.448-.65-1.309-.212-1.907A9.95 9.95 0 0 0 14 10.001a9.95 9.95 0 0 0-1.925-5.898c-.437-.598-.378-1.459.213-1.907"/></svg>