<svg xmlns="http://www.w3.org/2000/svg" fill="none" viewBox="0 0 144 144"><rect width="144" height="144" fill="#fff" rx="72"/><g opacity=".05"><path fill="#000" d="M27.927 90.839c-.844-2.634 2.904-9.616 5.837-12.509l6.046 11.05s-11.038 4.092-11.883 1.459"/><path stroke="#000" stroke-linecap="round" stroke-linejoin="round" stroke-width="2.37" d="M33.347 78.33s-8.548 11.466-4.794 13.134c2.527 1.123 7.296-5.004 7.296-5.004"/><path fill="#000" d="M45.248 52.892c-20.056 13.255-8.173 34.404-8.173 34.404s-6.047 0-5.212 5.211c.834 5.212 10.761 5.004 18.267 5.004 7.474 0 11.291-1.572 12.621-2.12l.016-.006c.097 2.527 12.609 3.29 28.206 2.888 18.494-.475 18.86-9.748 18.86-9.748s2.493 4.773 5.004 3.148c4.131-2.673-.675-14.34-1.99-18.13 1.799-4.693 1.241-19.466-15.584-25.39-12.157-4.281-39.572-3.485-52.015 4.74"/><path stroke="#000" stroke-linecap="round" stroke-linejoin="round" stroke-width="2.37" d="M62.767 95.385c.097 2.527 12.609 3.29 28.206 2.888 18.494-.475 18.86-9.748 18.86-9.748s2.493 4.773 5.004 3.148c4.131-2.673-.675-14.34-1.99-18.13 1.799-4.693 1.241-19.466-15.584-25.39-12.157-4.281-39.572-3.485-52.015 4.74-20.056 13.254-8.173 34.403-8.173 34.403s-6.047 0-5.212 5.211c.834 5.212 10.761 5.004 18.267 5.004 7.505 0 11.322-1.585 12.637-2.126m0 0c-.18-4.694.718-6.86 9.685-6.86"/></g><path fill="#fff" d="M72 66a1.8 1.8 0 0 1 1.8 1.8v2.4h2.4a1.8 1.8 0 0 1 0 3.6h-2.4v2.4a1.8 1.8 0 0 1-3.6 0v-2.4h-2.4a1.8 1.8 0 0 1 0-3.6h2.4v-2.4A1.8 1.8 0 0 1 72 66"/></svg>