<svg xmlns="http://www.w3.org/2000/svg" fill="none" viewBox="0 0 12 10"><g clip-path="url(#a)"><path fill="red" d="M6.167 0a1 1 0 0 1 .968 1.25l-.864 3.348 3.55-2.7a1.007 1.007 0 0 1 1.518.373l.174.375a.995.995 0 0 1-.688 1.394l-4.204.927 4.178.924a.994.994 0 0 1 .688 1.393l-.177.374a1.006 1.006 0 0 1-1.517.372l-3.54-2.693.882 3.413A1 1 0 0 1 6.167 10h-.335a1 1 0 0 1-.969-1.25l.879-3.412L2.207 8.03a1.006 1.006 0 0 1-1.518-.373l-.177-.374a.995.995 0 0 1 .689-1.393l4.178-.924-4.204-.927a.996.996 0 0 1-.689-1.395l.175-.373A1.007 1.007 0 0 1 2.179 1.9l3.547 2.7-.863-3.349A1 1 0 0 1 5.832 0z"/></g><defs><clipPath id="a"><path fill="#fff" d="M0 0h12v10H0z"/></clipPath></defs></svg>