<svg xmlns="http://www.w3.org/2000/svg" fill="none" viewBox="0 0 16 16"><g clip-path="url(#a)"><path fill="#fff" d="M1.433 13.594c.09.235.24.444.441.615s.449.302.73.384.588.114.905.095.639-.09.945-.21c.307-.117.592-.28.84-.48.249-.198.455-.43.608-.678.152-.25.248-.513.282-.775a1.5 1.5 0 0 0-.087-.751c-.182-.474-.603-.833-1.17-.999s-1.232-.125-1.85.114c-.62.239-1.14.656-1.448 1.16s-.379 1.052-.196 1.525m7.2-1.499c.09.234.24.443.441.614.201.172.449.302.73.384s.588.114.906.095c.317-.02.638-.09.944-.209.307-.118.592-.281.84-.48.249-.2.455-.43.608-.68a2 2 0 0 0 .282-.774 1.5 1.5 0 0 0-.086-.751 1.5 1.5 0 0 0-.442-.615 2 2 0 0 0-.729-.384 2.7 2.7 0 0 0-.906-.094c-.317.02-.638.09-.945.208a3.2 3.2 0 0 0-.84.48c-.248.2-.454.43-.607.68s-.248.512-.282.774-.004.517.086.752" opacity=".99"/><g filter="url(#b)"><path fill="#fff" d="M11.644 1.54 6.091 3.307A1.35 1.35 0 0 0 5.13 4.6v7.747h1.067v-6.28c0-.127.08-.24.206-.274l5.56-1.773q.04-.012.08-.013c.14 0 .287.113.287.286v6.534h1.067v-8c0-.907-.88-1.554-1.754-1.287"/></g></g><defs><clipPath id="a"><path fill="#fff" d="M0 0h16v16H0z"/></clipPath><filter id="b" width="48.267" height="50.867" x="-14.869" y="-18.521" color-interpolation-filters="sRGB" filterUnits="userSpaceOnUse"><feFlood flood-opacity="0" result="BackgroundImageFix"/><feColorMatrix in="SourceAlpha" result="hardAlpha" values="0 0 0 0 0 0 0 0 0 0 0 0 0 0 0 0 0 0 127 0"/><feOffset/><feGaussianBlur stdDeviation="10"/><feComposite in2="hardAlpha" operator="out"/><feColorMatrix values="0 0 0 0 0 0 0 0 0 0 0 0 0 0 0 0 0 0 0.3 0"/><feBlend in2="BackgroundImageFix" result="effect1_dropShadow_983_15350"/><feBlend in="SourceGraphic" in2="effect1_dropShadow_983_15350" result="shape"/></filter></defs></svg>