<svg width="36" height="36" viewBox="0 0 36 36" fill="none" xmlns="http://www.w3.org/2000/svg">
<path d="M8.45435 8.45386C9.04015 7.86828 9.98972 7.86814 10.5754 8.45386L18.0002 15.8787L25.4241 8.45483C26.0099 7.86905 26.9604 7.86905 27.5461 8.45483C28.1315 9.04059 28.1316 9.99025 27.5461 10.5759L20.1213 17.9998L27.5461 25.4246C28.1316 26.0103 28.1316 26.9599 27.5461 27.5457C26.9604 28.1314 26.0099 28.1314 25.4241 27.5457L18.0002 20.1208L10.5754 27.5466C9.98965 28.1324 9.03916 28.1324 8.45337 27.5466C7.86786 26.961 7.86808 26.0113 8.45337 25.4255L15.8782 17.9998L8.45435 10.575C7.86856 9.98916 7.86856 9.03964 8.45435 8.45386Z" fill="black"/>
</svg>
