<svg xmlns="http://www.w3.org/2000/svg" fill="none" viewBox="0 0 36 36"><path fill="#000" d="m30.098 26.473-2.413 2.41a1.25 1.25 0 1 1-1.766-1.767l.365-.366h-2.45a6.1 6.1 0 0 1-3.468-1.05 6.1 6.1 0 0 1-2.302-2.796l-3.687-8.846a3.67 3.67 0 0 0-1.38-1.678 3.67 3.67 0 0 0-2.08-.63H6.75a1.25 1.25 0 0 1 0-2.5h4.166a6.1 6.1 0 0 1 3.468 1.05 6.1 6.1 0 0 1 2.301 2.796l3.688 8.846q.435 1.048 1.38 1.678t2.08.63h2.45l-.364-.366a1.25 1.25 0 1 1 1.767-1.768L30.1 24.53q.4.4.401.971 0 .57-.402.973M6.75 26.75h2.646a6.1 6.1 0 0 0 3.654-1.18 6.1 6.1 0 0 0 2.275-3.094l.11-.331a1.251 1.251 0 1 0-2.371-.79l-.11.331a3.66 3.66 0 0 1-1.365 1.857 3.66 3.66 0 0 1-2.193.707H6.75a1.25 1.25 0 0 0 0 2.5m19.534-17.5h-.93a6.1 6.1 0 0 0-3.655 1.18 6.1 6.1 0 0 0-2.275 3.094l-.11.331a1.25 1.25 0 1 0 2.371.79l.111-.331a3.66 3.66 0 0 1 1.365-1.857 3.66 3.66 0 0 1 2.193-.707h.93l-.365.366a1.25 1.25 0 1 0 1.767 1.768L30.1 11.47a1.32 1.32 0 0 0 .401-.971q0-.57-.402-.972l-2.412-2.412a1.251 1.251 0 0 0-2.047 1.362q.099.23.28.406z"/></svg>