<svg width="12" height="12" viewBox="0 0 12 12" fill="none" xmlns="http://www.w3.org/2000/svg">
<path d="M9.35986 9.19792C9.65799 9.19792 9.89973 9.43987 9.8999 9.73796C9.8999 10.0362 9.6581 10.278 9.35986 10.278H2.34033C2.0421 10.278 1.80029 10.0362 1.80029 9.73796C1.80047 9.43987 2.04221 9.19792 2.34033 9.19792H9.35986ZM6.74561 1.87956C7.25168 1.37364 8.07253 1.37365 8.57861 1.87956C9.0845 2.38559 9.08441 3.20549 8.57861 3.71159L4.70166 7.58952H4.70068L4.69971 7.5905V7.58952L3.15381 7.78776C2.87375 7.82327 2.63494 7.58442 2.67041 7.30436L2.86768 5.75846V5.75553L2.86865 5.75651L6.74561 1.87956Z" fill="#E8CE83"/>
</svg>
