<svg xmlns="http://www.w3.org/2000/svg" fill="none" viewBox="0 0 36 36"><path fill="#e8ce83" d="M18.25 9c7.988 0 9.25 1.323 9.25 8.75s-1.262 8.75-9.25 8.75S9 25.177 9 17.75 10.262 9 18.25 9m6.207 6.083c-.252-.076-.411-.04-.73.031-1.376.31-2.33 1.202-2.97 2.117-.644.92-.966 1.38-1.062 1.475-.375.371-.107.21-.611.366-.13.04-.8.122-2.138.284-2.12.258-2.974 1.38-3.562 2.952-.111.296-.166.444-.125.704.027.175.19.471.321.59.196.175.33.205.6.263.878.192 2.323.385 4.58.385 1.91 0 3.239-.138 4.134-.297.257-.045.386-.068.78-.305.231-.137.714-.618.853-.847.24-.393.274-.587.345-.974.32-1.746.467-3.486.32-5.493-.032-.42-.048-.63-.194-.85a1.23 1.23 0 0 0-.541-.401M14.499 12a2.25 2.25 0 1 0 0 4.5 2.25 2.25 0 0 0 0-4.5"/></svg>