<svg xmlns="http://www.w3.org/2000/svg" fill="none" viewBox="0 0 36 36"><path fill="#fff" fill-rule="evenodd" d="M14.628 10.269c.842-.812 2.007-1.266 3.346-1.266s2.503.454 3.345 1.266c.84.81 1.32 1.941 1.36 3.232.02.606.031 1.302.031 2.102s-.011 1.496-.03 2.102c-.04 1.29-.521 2.422-1.361 3.232-.842.812-2.007 1.266-3.345 1.266s-2.504-.454-3.346-1.266c-.84-.81-1.32-1.941-1.36-3.232a67 67 0 0 1-.031-2.102c0-.8.011-1.496.03-2.102.04-1.29.521-2.422 1.361-3.232m-2.604 5.934q.094 0 .185.01.006.839.029 1.523c.048 1.516.617 2.9 1.665 3.91 1.051 1.015 2.486 1.557 4.07 1.557s3.02-.542 4.071-1.556c1.048-1.011 1.617-2.395 1.665-3.911q.023-.686.029-1.529.06-.004.121-.004h.446c.924 0 1.66.747 1.636 1.635-.102 3.866-2.557 6.714-6.23 7.404q-.034.338-.083.674a1.24 1.24 0 0 1-1.152 1.071 8 8 0 0 1-1.005 0 1.24 1.24 0 0 1-1.151-1.073q-.047-.328-.081-.66c-3.709-.667-6.195-3.525-6.297-7.416-.023-.888.712-1.635 1.635-1.635z" clip-rule="evenodd"/></svg>