<svg width="36" height="36" viewBox="0 0 36 36" fill="none" xmlns="http://www.w3.org/2000/svg">
<path d="M8.4535 8.45383C9.03926 7.86807 9.9888 7.86811 10.5746 8.45383L17.9994 15.8786L25.4242 8.45383C26.0099 7.86841 26.9596 7.86844 27.5453 8.45383C28.1311 9.03962 28.1311 9.99012 27.5453 10.5759L20.1205 17.9997L27.5453 25.4245C28.131 26.0103 28.1311 26.9599 27.5453 27.5456C26.9595 28.1312 26.0099 28.1313 25.4242 27.5456L17.9994 20.1208L10.5746 27.5466C9.98884 28.132 9.03918 28.1321 8.4535 27.5466C7.86771 26.9608 7.86771 26.0103 8.4535 25.4245L15.8783 17.9997L8.4535 10.5749C7.86784 9.9892 7.86792 9.03961 8.4535 8.45383Z" fill="black"/>
</svg>
