<svg xmlns="http://www.w3.org/2000/svg" fill="none" viewBox="0 0 20 20"><circle cx="16" cy="10" r="2" fill="#575757"/><path fill="#575757" d="M11.646 5.182c-.467-.354-1.131-.324-1.498.133A7.46 7.46 0 0 0 8.5 10.002a7.46 7.46 0 0 0 1.648 4.686c.367.458 1.031.488 1.498.133.62-.47.622-1.403.19-2.05A4.97 4.97 0 0 1 11 10.002c0-1.025.308-1.977.837-2.77.431-.647.428-1.58-.191-2.05M7.713 2.197c-.506-.384-1.227-.325-1.615.178A12.44 12.44 0 0 0 3.5 10c0 2.871.97 5.515 2.598 7.625.388.503 1.11.562 1.616.178.59-.448.65-1.31.211-1.907A9.95 9.95 0 0 1 6 10c0-2.206.715-4.243 1.925-5.896.438-.598.379-1.46-.212-1.907"/></svg>