<svg width="24" height="24" viewBox="0 0 24 24" fill="none" xmlns="http://www.w3.org/2000/svg">
<path d="M19.7204 12C20.4271 12 21.0093 12.5757 20.9092 13.2753C20.7024 14.7198 20.1464 16.0992 19.2812 17.2901C18.164 18.8277 16.5887 19.9722 14.7812 20.5595C12.9736 21.1468 11.0264 21.1468 9.21885 20.5595C7.41126 19.9722 5.836 18.8277 4.71885 17.2901C3.60169 15.7524 3 13.9006 3 12C3 10.0994 3.60169 8.24756 4.71885 6.70993C5.836 5.1723 7.41126 4.02781 9.21885 3.44049C10.6188 2.98561 12.1025 2.88304 13.5402 3.13276C14.2365 3.2537 14.6041 3.98534 14.3857 4.65744C14.1674 5.32954 13.4442 5.68347 12.7422 5.60204C11.8273 5.49591 10.8951 5.58669 10.0097 5.87438C8.71606 6.2947 7.58873 7.11375 6.78924 8.21416C5.98975 9.31456 5.55914 10.6398 5.55914 12C5.55914 13.3602 5.98974 14.6854 6.78924 15.7858C7.58873 16.8862 8.71606 17.7053 10.0097 18.1256C11.3033 18.5459 12.6967 18.5459 13.9903 18.1256C15.2839 17.7053 16.4113 16.8862 17.2108 15.7858C17.758 15.0327 18.1324 14.1741 18.3142 13.2712C18.4537 12.5784 19.0137 12 19.7204 12Z" fill="#0B1426" fill-opacity="0.22"/>
</svg>
