<svg width="36" height="36" viewBox="0 0 36 36" fill="none" xmlns="http://www.w3.org/2000/svg">
<path d="M17.5 23C16.6716 23 16 23.6716 16 24.5C16 25.3284 16.6716 26 17.5 26H26.5C27.3284 26 28 25.3284 28 24.5C28 23.6716 27.3284 23 26.5 23H17.5ZM13.5 16C12.6716 16 12 16.6716 12 17.5C12 18.3284 12.6716 19 13.5 19H26.5C27.3284 19 28 18.3284 28 17.5C28 16.6716 27.3284 16 26.5 16H13.5ZM9.5 9C8.67157 9 8 9.67157 8 10.5C8 11.3284 8.67157 12 9.5 12H26.5C27.3284 12 28 11.3284 28 10.5C28 9.67157 27.3284 9 26.5 9H9.5Z" fill="black"/>
</svg>
