<svg xmlns="http://www.w3.org/2000/svg" fill="none" viewBox="0 0 20 20"><circle cx="2" cy="2" r="2" fill="#000" transform="matrix(-1 0 0 1 6 8)"/><path fill="#000" d="M8.354 5.182c.467-.354 1.131-.324 1.498.133a7.46 7.46 0 0 1 1.648 4.687 7.46 7.46 0 0 1-1.648 4.686c-.367.458-1.031.488-1.498.133-.62-.47-.622-1.403-.19-2.05A4.97 4.97 0 0 0 9 10.002a5 5 0 0 0-.837-2.77c-.431-.647-.429-1.58.191-2.05m3.933-2.985c.506-.384 1.227-.325 1.615.178A12.44 12.44 0 0 1 16.5 10c0 2.871-.97 5.515-2.598 7.625-.388.503-1.11.562-1.616.178-.59-.448-.65-1.31-.211-1.907A9.95 9.95 0 0 0 14 10a9.95 9.95 0 0 0-1.925-5.896c-.438-.598-.379-1.46.212-1.907"/></svg>