<svg xmlns="http://www.w3.org/2000/svg" fill="none" viewBox="0 0 24 24"><g fill="#000" clip-path="url(#a)"><path fill-rule="evenodd" d="m1.355 8.35.854.425.915 2.477c.644 1.742 3.108 1.742 3.752 0l.916-2.477 1.978-.984c1.478-.736 1.478-2.845 0-3.581l-1.978-.985-.53-1.432A11.2 11.2 0 0 1 12 .75c1.693 0 3.298.374 4.738 1.043l-.53 1.432-1.977.985c-1.478.736-1.478 2.845 0 3.58l1.978.985.915 2.477c.644 1.742 3.108 1.742 3.752 0l.916-2.477.853-.425A11.3 11.3 0 0 1 23.25 12c0 6.213-5.037 11.25-11.25 11.25S.75 18.213.75 12c0-1.277.213-2.505.605-3.65m5.134 6.252a1.83 1.83 0 0 1 1.52-.404c1.062.19 2.468.37 3.99.37 1.524 0 2.93-.18 3.992-.37a1.83 1.83 0 0 1 1.52.404c.391.345.594.877.39 1.46a6.252 6.252 0 0 1-11.803 0c-.204-.583 0-1.115.391-1.46" clip-rule="evenodd"/><path d="M18.53 1.268a.5.5 0 0 1 .939 0l1.122 3.035 2.51 1.25a.5.5 0 0 1 0 .894l-2.51 1.25-1.122 3.034a.5.5 0 0 1-.938 0l-1.122-3.034-2.51-1.25a.5.5 0 0 1 0-.895l2.51-1.25zm-13.06 0a.5.5 0 0 0-.939 0L3.41 4.303.9 5.553a.5.5 0 0 0 0 .894l2.51 1.25 1.122 3.034a.5.5 0 0 0 .938 0l1.122-3.034 2.51-1.25a.5.5 0 0 0 0-.895l-2.51-1.25z"/></g><defs><clipPath id="a"><path fill="#fff" d="M0 0h24v24H0z"/></clipPath></defs></svg>