<svg xmlns="http://www.w3.org/2000/svg" fill="none" viewBox="0 0 24 24"><path fill="#ff3b30" fill-rule="evenodd" d="M12 2.87a9 9 0 1 0 0 18 9 9 0 0 0 0-18" clip-rule="evenodd"/><path fill="#fff" d="M10.96 12.527c.01.307.09.582.282.78.195.2.464.28.762.28.292 0 .556-.082.745-.285.184-.198.258-.472.265-.776l.14-4.47a1.08 1.08 0 0 0-.32-.844 1.15 1.15 0 0 0-.847-.342 1.14 1.14 0 0 0-.84.334 1.1 1.1 0 0 0-.31.852zm.128 4.783.003.003.003.003a1.3 1.3 0 0 0 .91.354c.34 0 .643-.12.893-.354.26-.242.389-.554.389-.915s-.128-.673-.387-.914a1.26 1.26 0 0 0-.895-.356c-.351 0-.66.124-.913.366a1.2 1.2 0 0 0-.377.904c0 .354.125.663.374.91"/></svg>