<svg width="24" height="24" viewBox="0 0 24 24" fill="none" xmlns="http://www.w3.org/2000/svg">
<path d="M2.83216 0.998341C1.68372 0.600066 0.62643 1.68108 1.06544 2.81956C2.11956 5.55321 3.40161 8.26426 4.00622 9.50761C4.25592 10.0211 4.69572 10.4127 5.22835 10.61L8.98015 11.9995L5.22835 13.3891C4.69572 13.5864 4.25592 13.978 4.00622 14.4915C3.40161 15.7348 2.11956 18.4459 1.06544 21.1795C0.62643 22.318 1.68372 23.399 2.83216 23.0007C6.6912 21.6624 14.8325 18.5011 21.841 13.5419C22.9123 12.7838 22.9123 11.2153 21.841 10.4572C14.8325 5.49791 6.69115 2.33664 2.83216 0.998341Z" fill="black"/>
</svg>
