<svg xmlns="http://www.w3.org/2000/svg" fill="none" viewBox="0 0 24 24"><path fill="#000" fill-opacity=".2" fill-rule="evenodd" d="M7.859 2.547C8.91 1.555 10.367 1 12.04 1s3.13.555 4.182 1.547c1.05.99 1.65 2.373 1.701 3.95.024.74.038 1.592.038 2.57s-.014 1.829-.038 2.57c-.05 1.576-.651 2.958-1.701 3.949-1.053.992-2.51 1.547-4.182 1.547s-3.13-.555-4.181-1.547c-1.05-.99-1.651-2.373-1.702-3.95a80 80 0 0 1-.038-2.57c0-.977.014-1.828.038-2.569.05-1.577.651-2.96 1.702-3.95M4.603 9.8q.118 0 .232.013.008 1.024.036 1.86c.06 1.853.77 3.545 2.08 4.78 1.315 1.24 3.108 1.903 5.09 1.903 1.98 0 3.773-.663 5.088-1.903 1.31-1.235 2.021-2.927 2.08-4.78q.028-.838.037-1.868.075-.005.151-.005h.558c1.154 0 2.074.913 2.044 1.998-.127 4.726-3.196 8.207-7.786 9.05q-.044.412-.105.823a1.536 1.536 0 0 1-1.44 1.31 10 10 0 0 1-.628.019q-.364-.001-.628-.019a1.534 1.534 0 0 1-1.439-1.312 22 22 0 0 1-.101-.806C5.236 20.048 2.129 16.554 2 11.798 1.97 10.713 2.89 9.8 4.045 9.8z" clip-rule="evenodd"/></svg>