<svg xmlns="http://www.w3.org/2000/svg" fill="none" overflow="visible" preserveAspectRatio="none" style="display:block" viewBox="0 0 20.533 12.409"><path fill="var(--fill-0, #f0da9c)" d="M.34 10.447c-.19-.593.653-2.164 1.313-2.815l1.36 2.486S.53 11.04.34 10.447"/><path stroke="var(--stroke-0, black)" stroke-linecap="round" stroke-linejoin="round" stroke-width=".533" d="M1.56 7.632s-1.924 2.58-1.08 2.955c.569.253 1.642-1.126 1.642-1.126"/><path fill="var(--fill-0, #f0da9c)" d="M4.237 1.908C-.276 4.89 2.398 9.649 2.398 9.649s-1.36 0-1.173 1.173 2.422 1.126 4.111 1.126c1.682 0 2.54-.354 2.84-.477l.004-.001c.022.568 2.837.74 6.347.65 4.162-.107 4.244-2.194 4.244-2.194s.561 1.074 1.126.708c.93-.601-.152-3.226-.448-4.08.405-1.056.28-4.38-3.507-5.713C13.207-.122 7.038.057 4.237 1.908"/><path stroke="var(--stroke-0, black)" stroke-linecap="round" stroke-linejoin="round" stroke-width=".533" d="M8.18 11.47c.022.568 2.837.74 6.347.65 4.162-.107 4.244-2.194 4.244-2.194s.561 1.074 1.126.708c.93-.601-.152-3.226-.448-4.08.405-1.056.28-4.38-3.507-5.713C13.207-.122 7.038.057 4.237 1.908-.276 4.89 2.398 9.649 2.398 9.649s-1.36 0-1.173 1.173 2.422 1.126 4.111 1.126 2.548-.357 2.844-.478m0 0c-.04-1.057.161-1.544 2.18-1.544"/><path stroke="var(--stroke-0, black)" stroke-linecap="round" stroke-linejoin="round" stroke-width=".482" d="M8.577 6.59s.427.007.885-.03c.457-.035.59-.309.59-.309"/><circle cx="5.825" cy="5.403" r="1.234" fill="var(--fill-0, white)" stroke="var(--stroke-0, black)" stroke-width=".482"/><ellipse cx="5.316" cy="5.235" fill="var(--fill-0, black)" rx=".821" ry="1.018"/><circle cx="12.096" cy="4.665" r="1.05" fill="var(--fill-0, white)" stroke="var(--stroke-0, black)" stroke-width=".482"/><ellipse cx="11.727" cy="4.583" fill="var(--fill-0, black)" rx=".613" ry=".841" transform="rotate(15.027 11.727 4.583)"/></svg>