<svg xmlns="http://www.w3.org/2000/svg" fill="none" overflow="visible" preserveAspectRatio="none" style="display:block" viewBox="0 0 168.302 132.03"><path fill="#000" d="M9.191 106.182c2.894-.369 11.235-.567 14.64 0 3.403.568 6.602 2.185 7.658 5.618 1.362 4.425.34 9.871-1.021 11.914-1.362 2.042-3.575 3.915-8.341 3.575-4.765-.341-6.51-1.702-6.638-.682-.397 3.17-.111 4.897-3.915 5.278-3.404.34-7.641.373-9.702-3.235-1.36-2.383-1.871-7.489-1.872-9.702 0-2.213 0-6.808 1.872-9.361s4.426-3.035 7.32-3.405m68.086 0c2.894-.369 11.234-.568 14.638-.001 3.404.568 6.603 2.185 7.66 5.618 1.361 4.425.34 9.872-1.021 11.915-1.362 2.042-3.575 3.914-8.341 3.574s-6.51-1.702-6.638-.681c-.397 3.17-.112 4.896-3.915 5.277-3.404.34-7.641.373-9.702-3.235-1.36-2.383-1.871-7.488-1.872-9.701 0-2.213 0-6.809 1.872-9.362s4.426-3.034 7.32-3.404m68.085 0c2.894-.369 11.234-.567 14.638 0 3.404.568 6.603 2.184 7.659 5.618 1.362 4.425.34 9.871-1.021 11.914-1.362 2.042-3.575 3.914-8.34 3.574s-6.511-1.702-6.639-.681c-.397 3.17-.111 4.896-3.914 5.277-3.404.34-7.642.374-9.703-3.234-1.361-2.383-1.87-7.489-1.871-9.702s0-6.808 1.871-9.361c1.872-2.553 4.427-3.035 7.32-3.405m-95.319-.34c10.041 0 14.468 1.532 16 8 1.25 5.276.427 11.545-2.384 14.439-2.414 2.486-7.49 3.574-13.616 3.574s-9.297-1.159-11.065-2.043c-2.558-1.279-4.346-3.412-4.936-6.203-.884-4.179-.511-10.09.852-12.32 1.872-3.064 5.107-5.448 15.149-5.447m68.086 0c10.041 0 14.468 1.532 16 8 1.249 5.276.427 11.545-2.384 14.439-2.415 2.486-7.489 3.574-13.616 3.574s-9.297-1.159-11.065-2.043c-2.558-1.279-4.346-3.412-4.936-6.203-.884-4.179-.511-10.09.852-12.32 1.872-3.064 5.107-5.448 15.149-5.447m-68.426 11.404c-1.702 0-2.213.851-2.213 1.702s.681 1.532 2.213 1.532c1.531 0 2.722-.511 2.723-1.532s-1.021-1.702-2.723-1.702m68.086 0c-1.702 0-2.213.851-2.213 1.702s.681 1.532 2.213 1.532c1.531 0 2.722-.511 2.723-1.532s-1.021-1.702-2.723-1.702m-102.81-1.702c-1.191 0-1.533.851-1.533 1.532s.341 1.531 1.533 1.531 3.744 0 3.745-1.531c0-1.532-2.554-1.532-3.745-1.532m68.086 0c-1.191 0-1.533.85-1.533 1.531s.34 1.532 1.532 1.532c1.193 0 3.745 0 3.745-1.532 0-1.531-2.553-1.531-3.745-1.531m68.083 0c-1.19 0-1.532.851-1.532 1.532.001.681.342 1.531 1.532 1.531 1.192 0 3.745 0 3.746-1.531 0-1.532-2.554-1.532-3.746-1.532"/><path fill="#f0da9c" d="M14.25 73.842c-1.343-4.189 4.62-15.295 9.285-19.896L33.15 71.52s-17.557 6.51-18.9 2.321"/><path stroke="#000" stroke-linecap="round" stroke-linejoin="round" stroke-width="3.769" d="M22.87 53.946s-13.595 18.238-7.624 20.89c4.02 1.787 11.605-7.958 11.605-7.958"/><path fill="#f0da9c" d="M40.452 13.484c-31.9 21.083-12.998 54.721-12.998 54.721s-9.619 0-8.292 8.29 17.118 7.959 29.056 7.959c11.89 0 17.96-2.5 20.075-3.372l.026-.01c.153 4.02 20.055 5.233 44.864 4.595 29.417-.757 29.999-15.506 29.999-15.506s3.965 7.592 7.959 5.008c6.571-4.253-1.073-22.809-3.165-28.838 2.861-7.466 1.974-30.963-24.788-40.386-19.337-6.81-62.943-5.543-82.736 7.538"/><path stroke="#000" stroke-linecap="round" stroke-linejoin="round" stroke-width="3.769" d="M68.319 81.072c.153 4.02 20.055 5.233 44.864 4.595 29.417-.757 29.999-15.506 29.999-15.506s3.965 7.592 7.959 5.008c6.571-4.253-1.073-22.809-3.165-28.838 2.861-7.466 1.974-30.963-24.788-40.386-19.337-6.81-62.943-5.543-82.736 7.538-31.9 21.084-12.998 54.722-12.998 54.722s-9.619 0-8.292 8.29 17.118 7.959 29.056 7.959c11.937 0 18.009-2.52 20.1-3.382m0 0c-.286-7.466 1.141-10.911 15.404-10.911"/><path stroke="#000" stroke-linecap="round" stroke-linejoin="round" stroke-width="3.409" d="M72.473 46.583s3.02.045 6.254-.21c3.234-.253 4.175-2.185 4.175-2.185"/><circle cx="53.015" cy="38.189" r="8.725" fill="#fff" stroke="#000" stroke-width="3.409"/><ellipse cx="49.423" cy="37.002" fill="#000" rx="5.806" ry="7.197"/><circle cx="97.341" cy="32.974" r="7.421" fill="#fff" stroke="#000" stroke-width="3.409"/><ellipse cx="94.734" cy="32.399" fill="#000" rx="4.336" ry="5.944" transform="rotate(15.027 94.734 32.399)"/></svg>