<svg xmlns="http://www.w3.org/2000/svg" fill="none" viewBox="0 0 12 10"><g clip-path="url(#a)"><path fill="red" d="M6.167 0a1 1 0 0 1 .969 1.25L6.27 4.598 9.822 1.9a1.006 1.006 0 0 1 1.517.372l.177.374a.995.995 0 0 1-.689 1.394l-4.203.928 4.176.923c.625.138.96.816.688 1.394l-.175.374a1.007 1.007 0 0 1-1.519.372l-3.54-2.694.883 3.413a1 1 0 0 1-.97 1.25h-.335a1 1 0 0 1-.969-1.25l.878-3.41-3.534 2.69a1.007 1.007 0 0 1-1.519-.373l-.174-.373A.995.995 0 0 1 1.2 5.891l4.176-.923-4.202-.928a.995.995 0 0 1-.689-1.394l.175-.374A1.007 1.007 0 0 1 2.18 1.9l3.547 2.7-.864-3.349A1 1 0 0 1 5.832 0z"/></g><defs><clipPath id="a"><path fill="#fff" d="M0 0h12v10H0z"/></clipPath></defs></svg>