<svg width="12" height="10" viewBox="0 0 12 10" fill="none" xmlns="http://www.w3.org/2000/svg">
<g clip-path="url(#clip0_1110_13402)">
<path d="M6.16701 0C6.82064 -1.4461e-07 7.29897 0.617079 7.13576 1.25L6.2715 4.59766L9.82033 1.90039C10.3285 1.51367 11.0664 1.69444 11.3379 2.27246L11.5147 2.64648C11.7849 3.22407 11.4502 3.90174 10.8262 4.04004L6.62306 4.96777L10.7988 5.89062C11.4235 6.02883 11.7586 6.70721 11.4873 7.28516L11.3115 7.65918C11.0399 8.23663 10.3009 8.41746 9.79299 8.03125L6.25392 5.33691L7.13576 8.75C7.29887 9.38287 6.82059 10 6.16701 10H5.83205C5.17849 9.99997 4.7002 9.38286 4.8633 8.75L5.74123 5.33984L2.20705 8.03125C1.699 8.4177 0.960028 8.23596 0.688494 7.6582L0.513689 7.28516C0.242594 6.70729 0.576704 6.02887 1.20119 5.89062L5.37697 4.96777L1.17482 4.04004C0.550253 3.9019 0.215321 3.22341 0.486345 2.64551L0.66115 2.27246C0.932526 1.69451 1.67156 1.51307 2.1797 1.89941L5.72658 4.59863L4.8633 1.25C4.70009 0.617095 5.17845 2.58637e-05 5.83205 0H6.16701Z" fill="#FF0000"/>
</g>
<defs>
<clipPath id="clip0_1110_13402">
<rect width="12" height="10" fill="white"/>
</clipPath>
</defs>
</svg>
