<svg xmlns="http://www.w3.org/2000/svg" fill="none" viewBox="0 0 153 92"><g opacity=".05"><path fill="#000" d="M2.52 77.372c-1.408-4.389 4.84-16.026 9.728-20.847L22.325 74.94S3.928 81.762 2.52 77.372"/><path stroke="#000" stroke-linecap="round" stroke-linejoin="round" stroke-width="3.95" d="M11.553 56.525s-14.246 19.11-7.99 21.89c4.212 1.871 12.16-8.34 12.16-8.34"/><path fill="#000" d="M31.388 14.128C-2.04 36.22 17.767 71.468 17.767 71.468s-10.078 0-8.688 8.686 17.937 8.339 30.445 8.339c12.458 0 18.82-2.62 21.036-3.533l.027-.01c.16 4.212 21.014 5.482 47.01 4.814 30.823-.793 31.434-16.248 31.434-16.248s4.154 7.956 8.339 5.248c6.886-4.456-1.124-23.9-3.316-30.218 2.997-7.822 2.068-32.443-25.974-42.317-20.262-7.135-65.953-5.808-86.692 7.9"/><path stroke="#000" stroke-linecap="round" stroke-linejoin="round" stroke-width="3.95" d="M60.587 84.95c.16 4.212 21.014 5.482 47.01 4.814 30.823-.793 31.434-16.248 31.434-16.248s4.154 7.956 8.339 5.248c6.886-4.456-1.124-23.9-3.316-30.218 2.997-7.822 2.068-32.443-25.974-42.317-20.262-7.135-65.953-5.808-86.692 7.9C-2.04 36.22 17.767 71.466 17.767 71.466s-10.078 0-8.688 8.687 17.937 8.339 30.445 8.339c12.509 0 18.87-2.641 21.063-3.544m0 0c-.3-7.823 1.196-11.434 16.14-11.434"/></g><path fill="#000" fill-opacity=".2" d="M75.975 33.975a3 3 0 0 1 3 3v6h6a3 3 0 1 1 0 6h-6v6a3 3 0 1 1-6 0v-6h-6a3 3 0 0 1 0-6h6v-6a3 3 0 0 1 3-3"/></svg>