<svg xmlns="http://www.w3.org/2000/svg" fill="none" overflow="visible" preserveAspectRatio="none" style="display:block" viewBox="0 0 16 16"><path fill="var(--fill-0, black)" fill-opacity=".2" d="M12.58 10.866a5.576 5.576 0 1 0-1.214 1.213l1.68 1.68a.858.858 0 0 0 1.213-1.213zm-1.774-6.02a3.72 3.72 0 0 1 1.13 2.73 3.72 3.72 0 0 1-1.13 2.73 3.72 3.72 0 0 1-2.73 1.13 3.72 3.72 0 0 1-2.73-1.13 3.72 3.72 0 0 1-1.13-2.73 3.72 3.72 0 0 1 1.13-2.73 3.72 3.72 0 0 1 2.73-1.13 3.72 3.72 0 0 1 2.73 1.13"/></svg>