<svg xmlns="http://www.w3.org/2000/svg" fill="none" viewBox="0 0 93 43"><path fill="#fff" d="M21.5.5C9.902.5.5 9.902.5 21.5a20.9 20.9 0 0 0 4.348 12.792c1.057 4.806-6.19 7.73-3.897 7.73 2.155 0 7.387.105 11.382-1.625A20.9 20.9 0 0 0 21.5 42.5h50c11.598 0 21-9.402 21-21s-9.402-21-21-21z"/><path fill="#000" fill-opacity=".06" d="M21.5.5V0zM4.848 34.292l.396-.305.068.089.024.108zM.95 42.022v-.5zm11.382-1.625-.199-.46.211-.09.207.1zM21.5 42.5v.5zm50 0v.5zm0-42V0zm-50 0V1C10.178 1 1 10.178 1 21.5H0C0 9.626 9.626 0 21.5 0zm-21 21H1c0 4.7 1.584 9.029 4.244 12.487l-.396.305-.397.305A21.4 21.4 0 0 1 0 21.5zm4.348 12.792.488-.108c.592 2.689-1.153 4.797-2.554 6.136-.358.342-.705.645-.998.9-.302.263-.532.462-.684.619a1 1 0 0 0-.125.145c-.025.04.055-.06.013-.224a.4.4 0 0 0-.129-.202.3.3 0 0 0-.083-.048l.04.006q.047.005.135.006v1a1.6 1.6 0 0 1-.47-.057c-.139-.043-.385-.16-.461-.452-.066-.253.048-.464.105-.557.07-.112.165-.22.259-.316.188-.193.457-.425.743-.674.295-.256.625-.545.964-.869 1.385-1.324 2.734-3.08 2.268-5.197zM.95 42.022v-.5c2.185 0 7.302.097 11.183-1.584l.199.459.199.458c-4.11 1.78-9.456 1.667-11.58 1.667zm11.382-1.625.219-.45A20.4 20.4 0 0 0 21.5 42v1a21.4 21.4 0 0 1-9.386-2.154zM21.5 42.5V42h50v1h-50zm50 0V42C82.822 42 92 32.822 92 21.5h1C93 33.374 83.374 43 71.5 43zm21-21H92C92 10.178 82.822 1 71.5 1V0C83.374 0 93 9.626 93 21.5zm-21-21V1h-50V0h50z"/></svg>