<svg xmlns="http://www.w3.org/2000/svg" fill="none" viewBox="0 0 24 24"><path fill="#fff" d="m14.967 4.609-.884-.85a.5.5 0 0 0-.35-.143h-3.466a.5.5 0 0 0-.35.144l-.884.849a.52.52 0 0 1-.35.143H5.508A.51.51 0 0 0 5 5.26v1.215c0 .281.227.508.508.508h12.984A.51.51 0 0 0 19 6.475v-1.22a.51.51 0 0 0-.509-.508h-3.174a.5.5 0 0 1-.35-.138M5.553 18.364a1.995 1.995 0 0 0 1.97 2.02h8.954a1.995 1.995 0 0 0 1.97-2.02V8.565a.51.51 0 0 0-.508-.508H6.056a.51.51 0 0 0-.508.508v9.8zm4.379-1.782h-.504a.51.51 0 0 1-.508-.508v-4.088c0-.281.227-.508.508-.508h.504c.281 0 .508.227.508.508v4.088a.514.514 0 0 1-.508.508m4.66 0h-.524a.51.51 0 0 1-.508-.508v-4.088c0-.281.227-.508.508-.508h.499c.276 0 .503.227.508.504l.025 4.087a.51.51 0 0 1-.508.513"/></svg>