<svg width="36" height="36" viewBox="0 0 36 36" fill="none" xmlns="http://www.w3.org/2000/svg">
<path d="M9.5 23C8.67157 23 8 23.6716 8 24.5C8 25.3284 8.67157 26 9.5 26H18.5C19.3284 26 20 25.3284 20 24.5C20 23.6716 19.3284 23 18.5 23H9.5ZM9.5 16C8.67157 16 8 16.6716 8 17.5C8 18.3284 8.67157 19 9.5 19H22.5C23.3284 19 24 18.3284 24 17.5C24 16.6716 23.3284 16 22.5 16H9.5ZM9.5 9C8.67157 9 8 9.67157 8 10.5C8 11.3284 8.67157 12 9.5 12H26.5C27.3284 12 28 11.3284 28 10.5C28 9.67157 27.3284 9 26.5 9H9.5Z" fill="black" fill-opacity="0.3"/>
</svg>
