<svg width="67" height="24" viewBox="0 0 67 24" fill="none" xmlns="http://www.w3.org/2000/svg">
<foreignObject x="-20" y="-20" width="107" height="64"><div xmlns="http://www.w3.org/1999/xhtml" style="backdrop-filter:blur(10px);clip-path:url(#bgblur_0_101_35071_clip_path);height:100%;width:100%"></div></foreignObject><path data-figma-bg-blur-radius="20" d="M67 12C67 5.37258 61.6274 0 55 0H12C5.37258 0 0 5.37258 0 12C0 18.6274 5.37258 24 12 24H55C61.6274 24 67 18.6274 67 12Z" fill="white" fill-opacity="0.2"/>
<defs>
<clipPath id="bgblur_0_101_35071_clip_path" transform="translate(20 20)"><path d="M67 12C67 5.37258 61.6274 0 55 0H12C5.37258 0 0 5.37258 0 12C0 18.6274 5.37258 24 12 24H55C61.6274 24 67 18.6274 67 12Z"/>
</clipPath></defs>
</svg>
