<svg xmlns="http://www.w3.org/2000/svg" fill="none" viewBox="0 0 24 24"><path fill="#ff3c00" d="M6.442 2.91c1.77-.35 3.282.18 4.408.896a1 1 0 0 1 .457.953l-.244 2.225 3.467 2.167a1 1 0 0 1 .095 1.63l-2.545 2.034 3.05 4.191a1 1 0 1 1-1.665 1.108L9.907 13.16a1 1 0 0 1 .208-1.335l2.158-1.726L9.47 8.347a1 1 0 0 1-.464-.957l.24-2.192c-.707-.337-1.518-.504-2.417-.327-1.115.22-2.208.982-2.82 2.153-.6 1.145-.779 2.76.081 4.755.62 1.44 1.882 2.911 3.37 4.274 1.47 1.348 3.084 2.52 4.321 3.382a.38.38 0 0 0 .436 0c1.238-.86 2.851-2.034 4.323-3.383 1.487-1.362 2.748-2.833 3.37-4.273.86-1.996.68-3.61.081-4.755-.613-1.17-1.706-1.933-2.82-2.153-1.134-.223-2.127.1-2.948.622a1 1 0 1 1-1.074-1.687c1.126-.717 2.64-1.246 4.408-.897 1.705.336 3.31 1.476 4.206 3.187.91 1.738 1.053 3.988-.018 6.474-.788 1.83-2.297 3.53-3.854 4.957-1.57 1.44-3.272 2.673-4.53 3.55a2.38 2.38 0 0 1-2.72 0c-1.26-.877-2.96-2.11-4.533-3.55C4.55 16.101 3.042 14.4 2.254 12.57c-1.07-2.486-.928-4.736-.018-6.474.897-1.71 2.501-2.85 4.206-3.187z"/></svg>