<svg xmlns="http://www.w3.org/2000/svg" fill="none" viewBox="0 0 190 116"><g opacity=".1"><path fill="#000" fill-opacity=".06" d="M3.166 97.184C1.398 91.671 9.246 77.054 15.385 71l12.656 23.13s-23.107 8.569-24.875 3.055"/><path stroke="#000" stroke-linecap="round" stroke-linejoin="round" stroke-width="4.961" d="M14.51 70.999S-3.383 95.002 4.476 98.494c5.291 2.351 15.274-10.475 15.274-10.475"/><path fill="#000" fill-opacity=".06" d="M37.647 17.746C-4.337 45.494 20.54 89.766 20.54 89.766s-12.658 0-10.912 10.911 22.529 10.474 38.24 10.474c15.648 0 23.638-3.291 26.422-4.437l.033-.014c.203 5.291 26.396 6.887 59.047 6.047 38.716-.995 39.482-20.407 39.482-20.407s5.219 9.992 10.475 6.59c8.649-5.596-1.412-30.018-4.166-37.954 3.766-9.825 2.598-40.75-32.623-53.152-25.451-8.961-82.84-7.295-108.89 9.922"/><path stroke="#000" stroke-linecap="round" stroke-linejoin="round" stroke-width="4.961" d="M74.322 106.7c.203 5.291 26.396 6.887 59.047 6.047 38.716-.995 39.482-20.407 39.482-20.407s5.219 9.992 10.475 6.59c8.649-5.596-1.412-30.018-4.166-37.954 3.766-9.825 2.598-40.75-32.623-53.152-25.451-8.961-82.84-7.295-108.89 9.922-41.984 27.748-17.108 72.02-17.108 72.02s-12.658 0-10.912 10.911 22.529 10.474 38.24 10.474 23.703-3.318 26.455-4.451m0 0c-.375-9.826 1.503-14.36 20.274-14.36"/><path stroke="#000" stroke-linecap="round" stroke-linejoin="round" stroke-width="4.487" d="M79.793 61.308s3.975.06 8.23-.275c4.257-.334 5.496-2.876 5.496-2.876"/><circle cx="54.185" cy="50.261" r="11.483" fill="#fff" stroke="#000" stroke-width="4.487"/><ellipse cx="49.457" cy="48.699" fill="#000" rx="7.641" ry="9.472"/><circle cx="112.522" cy="43.398" r="9.768" fill="#fff" stroke="#000" stroke-width="4.487"/><ellipse cx="109.095" cy="42.641" fill="#000" rx="5.706" ry="7.822" transform="rotate(15.027 109.095 42.64)"/></g></svg>