<svg width="190" height="116" viewBox="0 0 190 116" fill="none" xmlns="http://www.w3.org/2000/svg">
<g opacity="0.1">
<path d="M3.1658 97.1844C1.39767 91.6712 9.24531 77.0549 15.3846 70.9988L28.041 94.1294C28.041 94.1294 4.93392 102.698 3.1658 97.1844Z" fill="black" fill-opacity="0.06"/>
<path d="M14.5105 70.9988C14.5105 70.9988 -3.38283 95.0023 4.47518 98.4937C9.76621 100.845 19.7492 88.0194 19.7492 88.0194" stroke="black" stroke-width="4.96079" stroke-linecap="round" stroke-linejoin="round"/>
<path d="M37.6472 17.7459C-4.33728 45.4941 20.5393 89.7658 20.5393 89.7658C20.5393 89.7658 7.88085 89.7658 9.62692 100.677C11.373 111.587 32.1558 111.151 47.8672 111.151C63.5151 111.151 71.5049 107.86 74.2888 106.714L74.3224 106.7C74.5246 111.991 100.718 113.587 133.369 112.747C172.085 111.752 172.851 92.3397 172.851 92.3397C172.851 92.3397 178.07 102.332 183.326 98.9308C191.975 93.3341 181.914 68.9121 179.16 60.9763C182.926 51.1513 181.758 20.226 146.537 7.82391C121.086 -1.13747 63.6966 0.529424 37.6472 17.7459Z" fill="black" fill-opacity="0.06"/>
<path d="M74.3224 106.7C74.5246 111.991 100.718 113.587 133.369 112.747C172.085 111.752 172.851 92.3397 172.851 92.3397C172.851 92.3397 178.07 102.332 183.326 98.9308C191.975 93.3341 181.914 68.9121 179.16 60.9763C182.926 51.1513 181.758 20.226 146.537 7.82391C121.086 -1.13747 63.6966 0.529424 37.6472 17.7459C-4.33728 45.4941 20.5393 89.7658 20.5393 89.7658C20.5393 89.7658 7.88085 89.7658 9.62692 100.677C11.373 111.587 32.1558 111.151 47.8672 111.151C63.5786 111.151 71.5695 107.833 74.3224 106.7ZM74.3224 106.7C73.947 96.8745 75.8247 92.3397 94.5961 92.3397" stroke="black" stroke-width="4.96079" stroke-linecap="round" stroke-linejoin="round"/>
<path d="M79.7928 61.3082C79.7928 61.3082 83.7676 61.3677 88.0239 61.0335C92.2803 60.6993 93.5195 58.157 93.5195 58.157" stroke="black" stroke-width="4.4865" stroke-linecap="round" stroke-linejoin="round"/>
<circle cx="54.185" cy="50.2609" r="11.4834" fill="white" stroke="black" stroke-width="4.4865"/>
<ellipse cx="49.4568" cy="48.6986" rx="7.64139" ry="9.4717" fill="black"/>
<circle cx="112.522" cy="43.3982" r="9.76754" fill="white" stroke="black" stroke-width="4.4865"/>
<ellipse cx="109.095" cy="42.6407" rx="5.70629" ry="7.8224" transform="rotate(15.0268 109.095 42.6407)" fill="black"/>
</g>
</svg>
