<svg width="28" height="28" viewBox="0 0 28 28" fill="none" xmlns="http://www.w3.org/2000/svg">
<path d="M14 3.64581C19.799 3.64581 24.5 8.34682 24.5 14.1458C24.5 19.9448 19.799 24.6458 14 24.6458C8.20101 24.6458 3.5 19.9448 3.5 14.1458C3.5 8.34682 8.20101 3.64581 14 3.64581ZM18.3252 9.82062C17.8696 9.36524 17.1303 9.36509 16.6748 9.82062L14 12.4954L11.3252 9.82062C10.8696 9.36524 10.1303 9.36509 9.6748 9.82062C9.21927 10.2762 9.21943 11.0154 9.6748 11.471L12.3496 14.1458L9.6748 16.8206C9.21927 17.2761 9.21943 18.0154 9.6748 18.471C10.1304 18.9263 10.8697 18.9265 11.3252 18.471L14 15.7962L16.6748 18.471C17.1304 18.9263 17.8697 18.9265 18.3252 18.471C18.7807 18.0155 18.7805 17.2763 18.3252 16.8206L15.6504 14.1458L18.3252 11.471C18.7807 11.0155 18.7805 10.2763 18.3252 9.82062Z" fill="#0B1426" fill-opacity="0.22"/>
</svg>
