<svg xmlns="http://www.w3.org/2000/svg" fill="none" viewBox="0 0 24 24"><path fill="#000" fill-rule="evenodd" d="M.75 12C.75 5.787 5.787.75 12 .75S23.25 5.787 23.25 12 18.213 23.25 12 23.25a11.2 11.2 0 0 1-5.616-1.5c-1.233.455-2.63.902-4.005 1.225A1.152 1.152 0 0 1 .975 21.62c.29-1.44.732-2.88 1.204-4.129A11.2 11.2 0 0 1 .749 12m14.414 2.451a1 1 0 1 1 1.672 1.098C15.738 17.222 13.823 18 12 18s-3.738-.778-4.836-2.451a1 1 0 1 1 1.672-1.098C9.488 15.445 10.698 16 12 16c1.301 0 2.512-.555 3.164-1.549M8.5 7.5a1 1 0 0 1 1 1v1a1 1 0 1 1-2 0v-1a1 1 0 0 1 1-1m6 1a1 1 0 1 1 2 0v1a1 1 0 1 1-2 0z" clip-rule="evenodd"/></svg>