<svg xmlns="http://www.w3.org/2000/svg" fill="none" viewBox="0 0 24 24"><path fill="#000" fill-rule="evenodd" d="M12 .75C6.14.75 1.25 5.043 1.25 10.5c0 4.602 3.487 8.383 8.086 9.448q.02.361.042.65c.088 1.158.861 2.145 2.082 2.352.274.046.59.09.958.131a.75.75 0 0 0 .832-.745V21a.75.75 0 0 1 1.5 0v1.497a.75.75 0 0 0 .742.75 47 47 0 0 0 1.525-.008.75.75 0 0 0 .733-.75V21a.75.75 0 0 1 1.5 0v1.274a.75.75 0 0 0 .853.743q.235-.033.437-.067c1.221-.207 1.994-1.194 2.082-2.353.067-.883.128-2.258.128-4.347V10q0-.105-.027-.202C22.322 4.677 17.609.75 12 .75m9.25 10.75c0-1.376-.906-2.25-1.75-2.25s-1.75.874-1.75 2.25c0 1.377.906 2.25 1.75 2.25s1.75-.873 1.75-2.25m-10.5 0c0-1.305.956-2.25 2-2.25s2 .945 2 2.25-.955 2.25-2 2.25-2-.945-2-2.25" clip-rule="evenodd"/></svg>