<svg width="24" height="24" viewBox="0 0 24 24" fill="none" xmlns="http://www.w3.org/2000/svg">
<path d="M16.9499 5.47957C17.3404 5.08919 17.9735 5.08915 18.364 5.47957C18.7545 5.87005 18.7544 6.5031 18.364 6.89363L13.2566 12.0001L18.364 17.1075C18.7544 17.498 18.7545 18.1311 18.364 18.5216C17.9735 18.9119 17.3404 18.9119 16.9499 18.5216L11.8425 13.4141L7.05052 18.2081C6.66013 18.5983 6.02697 18.5981 5.63646 18.2081C5.24594 17.8176 5.24594 17.1836 5.63646 16.793L10.4285 12.0001L5.63646 7.20808C5.24594 6.81756 5.24594 6.18357 5.63646 5.79305C6.02697 5.40292 6.66011 5.40277 7.05052 5.79305L11.8425 10.586L16.9499 5.47957Z" fill="black" fill-opacity="0.3"/>
</svg>
