<svg xmlns="http://www.w3.org/2000/svg" fill="none" viewBox="0 0 36 36"><rect width="36" height="36" fill="#fff" rx="12"/><path fill="#f0da9c" d="M4.102 24.375c-.268-.836.923-3.055 1.855-3.974l1.921 3.51s-3.507 1.301-3.776.464"/><path stroke="#000" stroke-linecap="round" stroke-linejoin="round" stroke-width=".753" d="M5.826 20.4s-2.716 3.644-1.523 4.174c.803.357 2.318-1.59 2.318-1.59"/><path fill="#f0da9c" d="M9.338 12.317C2.965 16.53 6.74 23.25 6.74 23.25s-1.922 0-1.657 1.656c.266 1.656 3.42 1.59 5.805 1.59 2.375 0 3.588-.5 4.01-.674l.006-.002c.03.803 4.006 1.045 8.963.918 5.876-.151 5.993-3.098 5.993-3.098s.792 1.517 1.59 1c1.313-.849-.215-4.556-.633-5.76.572-1.492.395-6.186-4.952-8.069-3.863-1.36-12.574-1.107-16.528 1.506"/><path stroke="#000" stroke-linecap="round" stroke-linejoin="round" stroke-width=".753" d="M14.905 25.82c.03.803 4.006 1.045 8.963.918 5.876-.151 5.993-3.098 5.993-3.098s.792 1.517 1.59 1c1.313-.849-.215-4.556-.633-5.76.572-1.492.395-6.186-4.952-8.069-3.863-1.36-12.574-1.107-16.528 1.506C2.965 16.53 6.74 23.25 6.74 23.25s-1.922 0-1.657 1.656c.266 1.656 3.42 1.59 5.805 1.59s3.598-.504 4.016-.676m0 0c-.057-1.491.228-2.18 3.077-2.18"/><path stroke="#000" stroke-linecap="round" stroke-linejoin="round" stroke-width=".681" d="M15.732 18.929s.603.009 1.25-.042c.645-.05.833-.437.833-.437"/><circle cx="11.846" cy="17.252" r="1.743" fill="#fff" stroke="#000" stroke-width=".681"/><ellipse cx="11.128" cy="17.015" fill="#000" rx="1.16" ry="1.438"/><circle cx="20.702" cy="16.211" r="1.483" fill="#fff" stroke="#000" stroke-width=".681"/><ellipse cx="20.181" cy="16.095" fill="#000" rx=".866" ry="1.187" transform="rotate(15.027 20.181 16.095)"/></svg>