<svg xmlns="http://www.w3.org/2000/svg" fill="none" viewBox="0 0 190 32"><path fill="#000" d="M10.375 1.5c3.266-.418 12.68-.642 16.523-.002s7.451 2.466 8.644 6.34c1.537 4.995.385 11.144-1.152 13.45s-4.035 4.418-9.414 4.033-7.348-1.92-7.493-.768c-.448 3.578-.125 5.526-4.418 5.956-3.843.384-8.625.422-10.952-3.65C.577 24.168.001 18.405 0 15.907S0 8.222 2.113 5.341s4.996-3.425 8.262-3.842m76.845 0c3.266-.418 12.68-.642 16.522-.002 3.843.64 7.452 2.466 8.645 6.34 1.536 4.996.384 11.144-1.153 13.45s-4.035 4.418-9.414 4.033-7.347-1.92-7.492-.768c-.448 3.578-.126 5.526-4.419 5.956-3.842.384-8.625.422-10.951-3.65-1.536-2.69-2.112-8.454-2.112-10.952s0-7.685 2.112-10.566 4.996-3.425 8.262-3.842m76.848-.002c3.267-.417 12.679-.64 16.522 0s7.453 2.465 8.645 6.34c1.537 4.995.384 11.144-1.153 13.45-1.537 2.304-4.034 4.417-9.413 4.033s-7.347-1.92-7.492-.768c-.449 3.578-.126 5.526-4.419 5.956-3.843.384-8.626.422-10.952-3.65-1.536-2.69-2.112-8.454-2.113-10.952s0-7.684 2.113-10.566 4.996-3.426 8.262-3.843M56.481 1.114c11.335 0 16.33 1.73 18.06 9.03 1.41 5.956.481 13.032-2.691 16.298-2.726 2.805-8.453 4.035-15.368 4.035s-10.494-1.309-12.489-2.306c-2.887-1.444-4.906-3.852-5.572-7.002-.998-4.717-.577-11.39.96-13.906 2.115-3.458 5.766-6.149 17.1-6.149m76.853 0c11.334 0 16.331 1.73 18.06 9.03 1.41 5.956.481 13.031-2.692 16.298-2.725 2.805-8.453 4.035-15.368 4.035s-10.494-1.309-12.489-2.306c-2.888-1.444-4.905-3.852-5.572-7.002-.997-4.717-.577-11.39.961-13.906 2.114-3.458 5.766-6.149 17.1-6.149M56.099 13.986c-1.92 0-2.498.96-2.498 1.921 0 .96.769 1.73 2.498 1.73s3.073-.577 3.073-1.73c0-1.152-1.153-1.92-3.073-1.92m76.851 0c-1.92 0-2.497.96-2.497 1.921 0 .96.768 1.73 2.497 1.73s3.074-.577 3.074-1.73c0-1.152-1.153-1.92-3.074-1.92m-116.043-1.92c-1.344 0-1.73.96-1.73 1.728.001.768.385 1.73 1.73 1.73 1.346 0 4.227-.001 4.227-1.73s-2.882-1.729-4.227-1.729m76.844 0c-1.344 0-1.73.96-1.73 1.728s.385 1.73 1.73 1.73 4.227-.001 4.227-1.73c-.001-1.728-2.882-1.729-4.227-1.729m76.85-.002c-1.345 0-1.73.962-1.73 1.73.001.768.384 1.729 1.73 1.729 1.345 0 4.226 0 4.226-1.729s-2.882-1.73-4.226-1.73"/><path fill="#f0da9c" d="M107.793 26.353c-.479-1.495 1.649-5.459 3.314-7.101l3.432 6.272s-6.266 2.323-6.746.828"/><path stroke="#000" stroke-linecap="round" stroke-linejoin="round" stroke-width="1.345" d="M110.871 19.252s-4.852 6.509-2.721 7.456c1.434.637 4.141-2.84 4.141-2.84"/><path fill="#f0da9c" d="M117.145 4.812c-11.384 7.524-4.639 19.529-4.639 19.529s-3.432 0-2.959 2.958c.474 2.96 6.109 2.84 10.369 2.84 4.243 0 6.41-.892 7.165-1.203l.009-.003c.055 1.435 7.157 1.867 16.011 1.64 10.498-.27 10.706-5.534 10.706-5.534s1.415 2.71 2.84 1.787c2.346-1.518-.383-8.14-1.129-10.292 1.021-2.664.704-11.05-8.846-14.412-6.901-2.43-22.463-1.978-29.527 2.69"/><path stroke="#000" stroke-linecap="round" stroke-linejoin="round" stroke-width="1.345" d="M127.09 28.933c.055 1.435 7.157 1.867 16.011 1.64 10.498-.27 10.706-5.534 10.706-5.534s1.415 2.71 2.84 1.787c2.346-1.518-.383-8.14-1.129-10.292 1.021-2.664.704-11.05-8.846-14.412-6.901-2.43-22.463-1.978-29.527 2.69-11.384 7.524-4.639 19.529-4.639 19.529s-3.432 0-2.959 2.958c.474 2.96 6.109 2.84 10.369 2.84 4.261 0 6.427-.899 7.174-1.206m0 0c-.102-2.664.407-3.894 5.497-3.894"/><path stroke="#000" stroke-linecap="round" stroke-linejoin="round" stroke-width="1.217" d="M128.572 16.625s1.077.016 2.232-.075c1.154-.09 1.49-.78 1.49-.78"/><circle cx="121.63" cy="13.629" r="3.114" fill="#fff" stroke="#000" stroke-width="1.217"/><ellipse cx="120.346" cy="13.205" fill="#000" rx="2.072" ry="2.568"/><circle cx="137.448" cy="11.768" r="2.649" fill="#fff" stroke="#000" stroke-width="1.217"/><ellipse cx="136.519" cy="11.563" fill="#000" rx="1.547" ry="2.121" transform="rotate(15.027 136.519 11.563)"/></svg>