<svg xmlns="http://www.w3.org/2000/svg" fill="none" viewBox="0 0 16 16"><g clip-path="url(#a)"><path fill="#000" d="M8.247 1.943C9.033 1.15 10.044.667 11.273.667 13.919.667 16 2.847 16 5.916c0 1.84-.898 3.371-2.557 5.022-.357.356-1.448 1.363-1.498 1.411a18 18 0 0 1-.499.46q-.347.308-.704.604A42 42 0 0 1 8.42 15.2a.72.72 0 0 1-.838 0 44 44 0 0 1-2.323-1.787 27 27 0 0 1-.704-.604 18 18 0 0 1-.5-.46c-.049-.048-1.14-1.056-1.497-1.41C.9 9.286 0 7.756 0 5.915 0 2.846 2.081.666 4.727.666c1.23 0 2.24.484 3.026 1.277q.133.134.247.266.114-.132.247-.266m.032 11.546q.784-.586 1.54-1.21.336-.278.665-.57.247-.22.458-.422c.068-.065 1.145-1.06 1.48-1.392 1.407-1.402 2.124-2.622 2.124-3.98 0-2.27-1.444-3.782-3.273-3.782-.814 0-1.469.313-1.998.847a3.5 3.5 0 0 0-.61.841.725.725 0 0 1-1.33 0 2 2 0 0 0-.133-.239 3.5 3.5 0 0 0-.477-.602c-.53-.534-1.184-.847-1.998-.847-1.83 0-3.272 1.512-3.272 3.783 0 1.357.716 2.577 2.124 3.978.333.332 1.411 1.328 1.48 1.393q.21.203.457.422.31.277.666.57.889.736 1.818 1.417z"/></g><defs><clipPath id="a"><path fill="#fff" d="M0 0h16v16H0z"/></clipPath></defs></svg>