<svg xmlns="http://www.w3.org/2000/svg" fill="none" viewBox="0 0 45 54"><g filter="url(#a)"><path fill="#fff" d="M32.12 22.672c.851.193 1.442.781 1.498 1.484.066.815.135 2.113.135 3.969s-.07 3.154-.135 3.969c-.065.809-.838 1.467-1.901 1.544a51 51 0 0 1-3.603.112c-1.604 0-2.79-.054-3.603-.112-1.063-.077-1.837-.735-1.902-1.544v-.023q.201.05.422.067c.812.058 1.995.112 3.596.112s2.783-.054 3.595-.112c1.06-.077 1.832-.735 1.897-1.544.065-.815.134-2.113.134-3.969 0-1.844-.068-3.137-.133-3.953M25.627 20c1.6 0 2.783.054 3.595.112 1.06.077 1.832.735 1.897 1.544.065.815.134 2.113.134 3.969s-.069 3.154-.134 3.969c-.064.809-.837 1.467-1.897 1.544-.812.058-1.994.112-3.595.112s-2.784-.054-3.596-.112c-1.06-.077-1.832-.735-1.897-1.544-.065-.815-.134-2.113-.134-3.969s.069-3.154.134-3.969c.064-.809.837-1.467 1.897-1.544A50 50 0 0 1 25.627 20"/></g><defs><filter id="a" width="53.754" height="53.75" x="0" y="0" color-interpolation-filters="sRGB" filterUnits="userSpaceOnUse"><feFlood flood-opacity="0" result="BackgroundImageFix"/><feColorMatrix in="SourceAlpha" result="hardAlpha" values="0 0 0 0 0 0 0 0 0 0 0 0 0 0 0 0 0 0 127 0"/><feOffset/><feGaussianBlur stdDeviation="10"/><feComposite in2="hardAlpha" operator="out"/><feColorMatrix values="0 0 0 0 0 0 0 0 0 0 0 0 0 0 0 0 0 0 0.3 0"/><feBlend in2="BackgroundImageFix" result="effect1_dropShadow_2546_15488"/><feBlend in="SourceGraphic" in2="effect1_dropShadow_2546_15488" result="shape"/></filter></defs></svg>