<svg xmlns="http://www.w3.org/2000/svg" fill="none" viewBox="0 0 16 16"><path fill="#fff" d="M1.433 13.594c.09.235.24.444.441.615s.449.302.73.384.588.114.905.095.64-.09.945-.21c.307-.117.592-.28.84-.48.249-.198.455-.43.608-.678.152-.25.248-.513.282-.775a1.5 1.5 0 0 0-.087-.751c-.182-.474-.603-.833-1.17-.999-.566-.166-1.232-.125-1.85.114-.62.239-1.14.656-1.448 1.16s-.379 1.052-.196 1.525m7.2-1.499c.09.234.24.443.441.614.201.172.449.302.73.384s.588.114.906.095c.317-.02.638-.09.945-.209.306-.118.591-.281.84-.48.248-.2.454-.43.607-.68.152-.249.248-.512.282-.773a1.5 1.5 0 0 0-.086-.752 1.5 1.5 0 0 0-.441-.615 2 2 0 0 0-.73-.384 2.7 2.7 0 0 0-.906-.094c-.317.02-.638.09-.945.208a3.2 3.2 0 0 0-.84.48c-.248.2-.454.43-.607.68a2 2 0 0 0-.282.774c-.034.262-.004.517.086.752" opacity=".99"/><path fill="#fff" d="M11.644 1.54 6.091 3.307a1.35 1.35 0 0 0-.96 1.293v7.747h1.067v-6.28c0-.127.08-.24.206-.274l5.56-1.773q.04-.012.08-.013c.14 0 .287.113.287.286v6.533h1.067v-8c0-.906-.88-1.553-1.754-1.286" opacity=".99"/></svg>