<svg width="16" height="16" viewBox="0 0 16 16" fill="none" xmlns="http://www.w3.org/2000/svg">
<path opacity="0.99" d="M1.43301 13.5944C1.5235 13.8288 1.67343 14.0376 1.87424 14.2089C2.07505 14.3802 2.32281 14.5106 2.60336 14.5928C2.88392 14.6749 3.19178 14.7072 3.50937 14.6876C3.82696 14.6681 4.14806 14.5972 4.45433 14.4789C4.7606 14.3607 5.04606 14.1975 5.29439 13.9985C5.54272 13.7996 5.74907 13.5688 5.90165 13.3195C6.05423 13.0701 6.15006 12.807 6.18366 12.5452C6.21727 12.2834 6.18799 12.028 6.0975 11.7936C5.91474 11.3202 5.49376 10.9611 4.92715 10.7952C4.36054 10.6293 3.69473 10.6703 3.07618 10.9091C2.45763 11.1478 1.93702 11.5649 1.62886 12.0685C1.32071 12.5721 1.25026 13.121 1.43301 13.5944Z" fill="white"/>
<path opacity="0.99" d="M8.63326 12.0947C8.72374 12.3291 8.87367 12.5379 9.07447 12.7092C9.27528 12.8805 9.52303 13.011 9.80359 13.0932C10.0842 13.1753 10.392 13.2075 10.7096 13.188C11.0272 13.1685 11.3483 13.0976 11.6546 12.9793C11.9609 12.8611 12.2463 12.6978 12.4947 12.4989C12.743 12.2999 12.9494 12.0692 13.1019 11.8198C13.2545 11.5705 13.3504 11.3074 13.3839 11.0456C13.4175 10.7837 13.3883 10.5283 13.2977 10.2939C13.2073 10.0595 13.0573 9.8507 12.8565 9.67938C12.6557 9.50806 12.408 9.3776 12.1274 9.29545C11.8469 9.2133 11.539 9.18108 11.2214 9.20061C10.9038 9.22014 10.5827 9.29105 10.2764 9.40929C9.97012 9.52753 9.68466 9.69078 9.43633 9.88973C9.18799 10.0887 8.98164 10.3194 8.82906 10.5688C8.67648 10.8181 8.58066 11.0812 8.54706 11.343C8.51347 11.6049 8.54276 11.8603 8.63326 12.0947Z" fill="white"/>
<path opacity="0.99" d="M11.6443 1.53985L6.09095 3.30652C5.81321 3.39033 5.56985 3.56138 5.39694 3.79433C5.22403 4.02728 5.13076 4.30974 5.13095 4.59985V12.3465H6.19762V6.06652C6.19762 5.93985 6.27762 5.82652 6.40428 5.79319L11.9643 4.01985C11.991 4.01319 12.0176 4.00652 12.0443 4.00652C12.1843 4.00652 12.331 4.11985 12.331 4.29319V10.8265H13.3976V2.82652C13.3976 1.91985 12.5176 1.27319 11.6443 1.53985Z" fill="white"/>
</svg>
