<svg width="28" height="28" viewBox="0 0 28 28" fill="none" xmlns="http://www.w3.org/2000/svg">
<path d="M14 3.64587C19.799 3.64587 24.5 8.34688 24.5 14.1459C24.5 19.9449 19.799 24.6459 14 24.6459C8.20101 24.6459 3.5 19.9449 3.5 14.1459C3.5 8.34688 8.20101 3.64587 14 3.64587ZM18.3252 9.82068C17.8696 9.3653 17.1303 9.36515 16.6748 9.82068L14 12.4955L11.3252 9.82068C10.8696 9.3653 10.1303 9.36515 9.6748 9.82068C9.21927 10.2762 9.21943 11.0154 9.6748 11.4711L12.3496 14.1459L9.6748 16.8207C9.21927 17.2762 9.21943 18.0154 9.6748 18.4711C10.1304 18.9264 10.8697 18.9266 11.3252 18.4711L14 15.7963L16.6748 18.4711C17.1304 18.9264 17.8697 18.9266 18.3252 18.4711C18.7807 18.0156 18.7805 17.2763 18.3252 16.8207L15.6504 14.1459L18.3252 11.4711C18.7807 11.0156 18.7805 10.2763 18.3252 9.82068Z" fill="#0B1426" fill-opacity="0.22"/>
</svg>
