<svg width="237" height="145" viewBox="0 0 237 145" fill="none" xmlns="http://www.w3.org/2000/svg">
<path d="M3.95694 121.481C1.74679 114.589 11.5563 96.3187 19.2305 88.7485L35.051 117.662C35.051 117.662 6.16709 128.372 3.95694 121.481Z" fill="#F0DA9C"/>
<path d="M18.138 88.7485C18.138 88.7485 -4.22863 118.753 5.59389 123.117C12.2077 126.056 24.6864 110.024 24.6864 110.024" stroke="black" stroke-width="6.20099" stroke-linecap="round" stroke-linejoin="round"/>
<path d="M47.0595 22.1825C-5.42115 56.8678 25.6746 112.207 25.6746 112.207C25.6746 112.207 9.85152 112.207 12.0341 125.846C14.2167 139.484 40.1952 138.939 59.8344 138.939C79.3944 138.939 89.3815 134.825 92.8615 133.392L92.9035 133.375C93.1562 139.989 125.898 141.984 166.712 140.934C215.106 139.69 216.065 115.425 216.065 115.425C216.065 115.425 222.587 127.915 229.157 123.664C239.969 116.668 227.392 86.1403 223.951 76.2206C228.658 63.9392 227.198 25.2826 183.171 9.78005C151.359 -1.42168 79.6212 0.661933 47.0595 22.1825Z" fill="#F0DA9C"/>
<path d="M92.9035 133.375C93.1562 139.989 125.898 141.984 166.712 140.934C215.106 139.69 216.065 115.425 216.065 115.425C216.065 115.425 222.587 127.915 229.157 123.664C239.969 116.668 227.392 86.1403 223.951 76.2206C228.658 63.9392 227.198 25.2826 183.171 9.78005C151.359 -1.42168 79.6212 0.661933 47.0595 22.1825C-5.42115 56.8678 25.6746 112.207 25.6746 112.207C25.6746 112.207 9.85152 112.207 12.0341 125.846C14.2167 139.484 40.1952 138.939 59.8344 138.939C79.4736 138.939 89.4623 134.792 92.9035 133.375ZM92.9035 133.375C92.4342 121.093 94.7814 115.425 118.246 115.425" stroke="black" stroke-width="6.20099" stroke-linecap="round" stroke-linejoin="round"/>
<path d="M99.7407 76.6353C99.7407 76.6353 104.709 76.7097 110.03 76.292C115.35 75.8742 116.899 72.6963 116.899 72.6963" stroke="black" stroke-width="5.60813" stroke-linecap="round" stroke-linejoin="round"/>
<circle cx="67.731" cy="62.8262" r="14.3542" fill="white" stroke="black" stroke-width="5.60813"/>
<ellipse cx="61.821" cy="60.8733" rx="9.55173" ry="11.8396" fill="black"/>
<circle cx="140.652" cy="54.2479" r="12.2094" fill="white" stroke="black" stroke-width="5.60813"/>
<ellipse cx="136.367" cy="53.3013" rx="7.13286" ry="9.778" transform="rotate(15.0268 136.367 53.3013)" fill="black"/>
</svg>
